<svg width="600" height="130" viewBox="0 0 600 130" fill="none" xmlns="http://www.w3.org/2000/svg">
<path d="M43.9838 8.48975C36.9902 8.48986 30.8252 9.5625 25.4397 11.6558C20.0541 13.7493 15.8475 16.6029 12.8102 20.2494C9.77281 23.8961 7.92561 27.6873 7.31304 31.6264C6.70046 35.5657 6.40844 41.4919 6.40845 49.3703V81.3093C6.40844 92.024 7.40968 100.051 9.40056 105.385C11.3914 110.72 15.452 114.894 21.5777 117.911C27.7035 120.927 35.4793 122.433 44.9232 122.433C54.0096 122.433 61.6487 120.632 67.8511 117.076C74.0533 113.519 78.0768 109.382 79.8891 104.655C81.7012 99.9277 82.6028 91.9135 82.6029 80.6135V76.3688H50.3507V90.077C50.3507 96.0647 49.9775 99.868 49.2374 101.489C48.4971 103.109 46.9397 103.924 44.5405 103.924C42.0391 103.924 40.419 103.109 39.7044 101.489C38.9897 99.868 38.6258 96.3983 38.6258 91.0859V40.2896C38.6258 34.7522 38.9897 31.1699 39.7044 29.5041C40.419 27.8385 42.0947 26.9991 44.7492 26.999C47.0974 26.9991 48.6178 27.6788 49.3069 29.0518C49.996 30.425 50.3507 33.8825 50.3507 39.4198V58.4858H82.6029V48.083C82.6028 37.8636 81.6201 30.3079 79.6803 25.4682C77.7404 20.6287 73.6799 16.6021 67.5032 13.3606C61.3263 10.1193 53.4786 8.48986 43.9838 8.48975V8.48975ZM302.14 10.7512V120.102H342.29C349.901 120.102 355.593 119.732 359.373 118.989C363.153 118.246 366.335 116.926 368.906 115.058C371.476 113.189 373.3 110.608 374.334 107.299C375.367 103.99 375.864 97.4209 375.864 87.6066V49.3355C375.864 38.9811 375.526 32.0292 374.821 28.4951C374.115 24.9612 372.355 21.7391 369.532 18.8577C366.71 15.9766 362.565 13.9254 357.146 12.6647C351.728 11.4043 341.345 10.7513 325.973 10.7512H302.14V10.7512ZM382.127 10.7512V75.4642C382.127 87.7998 382.388 95.9001 382.892 99.7491C383.397 103.598 385.022 107.242 387.798 110.709C390.574 114.175 394.756 117.002 400.358 119.163C405.96 121.324 412.454 122.399 419.772 122.399C426.383 122.399 432.124 121.473 436.994 119.65C441.864 117.827 445.776 115.147 448.754 111.613C451.731 108.079 453.506 104.634 454.112 101.28C454.717 97.9261 455.051 92.098 455.051 83.8143V10.7512H423.147V91.3295C423.147 96.7769 422.857 100.234 422.277 101.697C421.696 103.161 420.399 103.889 418.38 103.889C416.614 103.889 415.447 103.234 414.866 101.906C414.286 100.578 413.996 97.5281 413.996 92.756V10.7512H382.127V10.7512ZM457.8 10.7512V32.6354H477.039V120.102H509.605V32.6354H527.036L542.588 80.5092V120.102H572.474V80.5092L595.993 10.7512H566.351C562.164 27.7688 559.161 42.1288 557.374 53.7889C556.813 46.4057 554.227 32.0456 549.581 10.7512H528.914H519.938H457.8V10.7512ZM97.1807 10.7859L81.3852 120.137H113.603L115.447 100.48H126.58L128.146 120.137H159.98L142.167 10.7859H97.1807V10.7859ZM162.59 10.7859V120.137H215.056V98.2529H195.225V10.7859H162.59V10.7859ZM219.196 10.7859V120.137H269.401V98.2529H250.439V10.7859H219.196V10.7859ZM333.975 29.4692C337.453 29.4693 339.847 29.7907 341.107 30.4434C342.367 31.0963 343.155 32.1096 343.508 33.5051C343.861 34.9008 344.03 38.0861 344.03 43.0381V85.5192C344.03 92.8124 343.523 97.2708 342.464 98.9139C341.406 100.557 338.561 101.384 333.975 101.384V29.4692ZM120.978 35.2447C122.554 53.4327 124.134 68.7202 125.71 81.1005H115.064C115.852 71.4214 117.827 56.1339 120.978 35.2447ZM268.079 35.4883C266.093 35.4883 264.353 35.8297 262.86 36.532C261.367 37.2344 260.188 38.2479 259.311 39.5589C258.434 40.87 257.912 42.3238 257.746 43.908C257.579 45.4922 257.467 48.1714 257.467 51.9797V58.4858C257.467 62.3877 257.572 65.1011 257.746 66.6619C257.92 68.2226 258.468 69.6842 259.381 71.0108C260.294 72.3375 261.499 73.3396 262.999 74.0029C264.5 74.6662 266.194 74.977 268.079 74.9771C270.065 74.977 271.804 74.6358 273.298 73.9333C274.791 73.231 275.969 72.2175 276.846 70.9064C277.723 69.5954 278.245 68.1417 278.412 66.5575C278.579 64.9733 278.656 62.2941 278.656 58.4858V51.9797C278.656 48.0778 278.586 45.3643 278.412 43.8035C278.238 42.2428 277.69 40.7812 276.777 39.4545C275.864 38.1279 274.659 37.1606 273.159 36.4973C271.658 35.834 269.963 35.4883 268.079 35.4883V35.4883ZM280.987 36.2189V73.6898H290.137V57.9639H295.773V50.8315H290.137V43.7339H296.469V36.2189H280.987V36.2189ZM268.114 41.89C268.679 41.89 269.046 42.1638 269.227 42.6554C269.408 43.1471 269.505 44.2666 269.505 46.0302V63.4262C269.505 65.6581 269.401 67.0777 269.227 67.6708C269.053 68.2639 268.667 68.5754 268.044 68.5754C267.435 68.5754 267.063 68.3251 266.896 67.81C266.729 67.295 266.618 65.94 266.618 63.7393V46.0302C266.618 44.0793 266.747 42.9142 267 42.5162C267.254 42.1183 267.635 41.89 268.114 41.89V41.89Z" fill="white"/>
</svg>
